<?xml version="1.0" encoding="utf-8"?>
<!-- Generator: Adobe Illustrator 23.0.1, SVG Export Plug-In . SVG Version: 6.00 Build 0)  -->
<svg version="1.1" id="Слой_1" xmlns="http://www.w3.org/2000/svg" xmlns:xlink="http://www.w3.org/1999/xlink" x="0px" y="0px"
	 viewBox="0 0 400 400" style="enable-background:new 0 0 400 400;" xml:space="preserve">
<style type="text/css">
	.st0{fill:#FEFEFE;}
	.st1{fill:#010101;}
</style>
<g>
	<g>
		<path class="st0" d="M224.93,225.46c-16.05,0-32.1-0.02-48.15,0.04c-1.46,0.01-1.76-0.29-1.75-1.75c0.07-15.32,0.07-30.63,0-45.95
			c-0.01-1.46,0.29-1.76,1.75-1.75c15.48,0.07,30.96,0.07,46.44,0c1.46-0.01,1.76,0.29,1.75,1.75
			C224.9,193.69,224.93,209.57,224.93,225.46z"/>
		<path class="st1" d="M181.35,190.52c0.58,0.54,1.07,0.96,1.52,1.4c4.89,4.78,9.8,9.54,14.64,14.38c1.08,1.08,1.68,1.25,2.87,0.05
			c4.87-4.92,9.88-9.7,14.83-14.54c0.74-0.72,1.23-1.63,2.49-0.38c1.26,1.25,0.31,1.71-0.4,2.41c-5.64,5.53-11.3,11.04-16.89,16.62
			c-1.04,1.04-1.62,1.31-2.83,0.1c-5.68-5.72-11.48-11.32-17.22-16.99c-0.38-0.37-1.31-0.68-0.62-1.5
			C180.21,191.52,180.77,191.07,181.35,190.52z"/>
	</g>
</g>
</svg>
